<svg width="79" height="40" viewBox="0 0 79 40" fill="none" xmlns="http://www.w3.org/2000/svg">
<path d="M15.5828 8.81212e-06L19.3198 9.53674e-06L19.3198 18.2208L15.5828 18.2208L15.5828 10.1809L13.0487 10.1809L13.0487 18.2208L9.31164 18.2208L9.31164 7.59613e-06L13.0487 8.32076e-06L13.0487 7.58431L15.5828 7.58431L15.5828 8.81212e-06Z" fill="#262626"/>
<path d="M26.8353 18.462C25.0308 18.462 23.797 18.1315 23.134 17.4704C22.4709 16.8094 22.1424 15.5845 22.1483 13.7959L22.1483 8.87964C22.1483 7.09299 22.4809 5.86517 23.1459 5.19617C23.8109 4.52718 25.0407 4.19367 26.8353 4.19565C28.6458 4.19565 29.8815 4.52618 30.5426 5.18724C31.2037 5.8483 31.5342 7.07612 31.5342 8.87071L31.5342 13.7959C31.5342 15.5825 31.2037 16.8104 30.5426 17.4794C29.8815 18.1484 28.6458 18.4759 26.8353 18.462ZM26.0909 15.5528C26.2907 15.7456 26.5576 15.8534 26.8353 15.8534C27.113 15.8534 27.3799 15.7456 27.5797 15.5528C27.7522 15.2329 27.8278 14.8697 27.7971 14.5076L27.7971 8.13818C27.8278 7.77607 27.7522 7.41287 27.5797 7.09299C27.3799 6.90013 27.113 6.79235 26.8353 6.79235C26.5576 6.79235 26.2907 6.90013 26.0909 7.09299C25.9169 7.41232 25.8413 7.77597 25.8735 8.13818L25.8735 14.5076C25.8449 14.871 25.9247 15.2347 26.1028 15.5528L26.0909 15.5528Z" fill="#262626"/>
<path d="M38.5291 18.462C36.7266 18.462 35.4928 18.1315 34.8278 17.4704C34.1627 16.8094 33.8302 15.5845 33.8302 13.7959L33.8302 8.87964C33.8302 7.09299 34.1627 5.86517 34.8278 5.19617C35.4928 4.52718 36.7266 4.19665 38.5291 4.20459C40.3416 4.20459 41.5783 4.53512 42.2394 5.19618C42.9004 5.85723 43.231 7.08505 43.231 8.87964L43.231 13.7959C43.231 15.5825 42.9004 16.8104 42.2394 17.4794C41.5783 18.1484 40.3416 18.4759 38.5291 18.462ZM37.7847 15.5528C37.9849 15.7449 38.2516 15.8522 38.5291 15.8522C38.8066 15.8522 39.0734 15.7449 39.2735 15.5528C39.4448 15.2325 39.5193 14.8694 39.4879 14.5076L39.4879 8.13818C39.5193 7.77637 39.4448 7.41324 39.2735 7.09299C39.0734 6.90082 38.8066 6.79351 38.5291 6.79351C38.2516 6.79351 37.9849 6.90082 37.7847 7.09299C37.6082 7.41168 37.5286 7.7749 37.5554 8.13818L37.5554 14.5076C37.5286 14.8708 37.6082 15.2341 37.7847 15.5528Z" fill="#262626"/>
<path d="M55.5023 18.2208L51.5509 18.2208L49.5081 12.1641L49.5081 18.2208L45.7711 18.2208L45.7711 7.64984e-06L49.5171 8.37619e-06L49.5171 10.2405L51.4407 4.43684L55.3594 4.43684L52.87 11.1546L55.5023 18.2208Z" fill="#262626"/>
<path d="M61.4789 4.19564C63.1902 4.19564 64.3654 4.52816 65.0046 5.19318C65.6438 5.85821 65.9624 7.08405 65.9604 8.87069L65.9604 18.2208L62.9083 18.2208L62.6909 16.9463C62.4603 17.417 62.0982 17.8106 61.6484 18.0796C61.1987 18.3486 60.6805 18.4815 60.1568 18.462C59.681 18.4776 59.2082 18.3818 58.7759 18.1822C58.3437 17.9827 57.9641 17.6849 57.6674 17.3126C57.0421 16.5562 56.7294 15.5369 56.7294 14.2544C56.7294 12.8509 57.0689 11.8196 57.7478 11.1606C58.4268 10.5015 59.4819 10.171 60.9132 10.169C61.0978 10.169 61.5325 10.2017 62.2234 10.2643L62.2234 8.10243C62.2504 7.75661 62.1835 7.40991 62.0298 7.09894C61.9572 6.99673 61.8591 6.91541 61.7451 6.86315C61.6312 6.81088 61.5055 6.78951 61.3807 6.80116C61.2542 6.79034 61.1271 6.81202 61.0114 6.86413C60.8957 6.91625 60.7953 6.99708 60.7196 7.09894C60.5606 7.40612 60.4905 7.7516 60.5171 8.09648L60.5171 9.10593L56.9826 9.10593L56.9826 8.86474C56.9826 7.07809 57.3012 5.85225 57.9384 5.18723C58.5756 4.5222 59.7558 4.19167 61.4789 4.19564ZM61.3777 15.8535C61.5404 15.8569 61.7016 15.8217 61.8481 15.7508C61.9945 15.6799 62.1221 15.5753 62.2204 15.4455L62.2204 12.5601C61.9952 12.4891 61.7596 12.4569 61.5236 12.4648C61.0889 12.4648 60.806 12.575 60.669 12.7954C60.532 13.0157 60.4665 13.4773 60.4665 14.183C60.4395 14.6167 60.5129 15.0508 60.6809 15.4515C60.7455 15.5789 60.8457 15.6848 60.9695 15.7562C61.0932 15.8276 61.2351 15.8614 61.3777 15.8535Z" fill="#262626"/>
<path d="M74.4794 4.19564C75.6963 4.19564 76.5897 4.57382 77.1594 5.33016C77.7292 6.08651 78.0269 7.26668 78.0527 8.87069L78.0527 18.2208L74.3157 18.2208L74.3157 8.13817C74.3157 7.24485 73.9851 6.79223 73.33 6.79223C73.1511 6.7851 72.9731 6.82051 72.8106 6.89558C72.648 6.97064 72.5056 7.08319 72.395 7.224L72.395 18.2208L68.655 18.2208L68.655 3.89984e-06L72.395 4.62503e-06L72.395 4.92817C72.9673 4.4208 73.7156 4.15783 74.4794 4.19564Z" fill="#262626"/>
<path d="M13.5405 40C11.867 40 10.6531 39.603 9.89869 38.8089C9.14433 38.0149 8.76815 36.7334 8.77013 34.9647L8.77013 33.7259L12.5072 33.7259L12.5072 35.9265C12.5072 36.9032 12.8754 37.3915 13.6119 37.3915C14.3484 37.3915 14.7177 36.9032 14.7197 35.9265L14.7197 34.0445C14.7546 33.6366 14.6368 33.2301 14.3891 32.9041C14.1688 32.6629 13.7042 32.4276 13.0015 32.1954C11.4848 31.6991 10.4089 31.0559 9.77363 30.2658C9.13838 29.4757 8.81976 28.3839 8.81778 26.9903L8.81778 26.9664C8.81778 24.9078 9.18007 23.4497 9.90465 22.5921C10.6292 21.7346 11.865 21.3038 13.6119 21.2998C15.2695 21.2998 16.4676 21.6968 17.2061 22.4909C17.9445 23.285 18.3128 24.5753 18.3108 26.362L18.3108 27.3327L14.5737 27.3327L14.5737 25.2662C14.602 24.9 14.5168 24.534 14.3296 24.218C14.2351 24.1108 14.1163 24.0278 13.9832 23.976C13.85 23.9241 13.7064 23.905 13.5643 23.9202C13.4217 23.9045 13.2775 23.9234 13.1438 23.9752C13.0101 24.0271 12.8908 24.1103 12.796 24.218C12.6091 24.5307 12.5248 24.8941 12.5548 25.2572L12.5548 26.8176C12.5252 27.2296 12.6493 27.6381 12.9032 27.964C13.2631 28.2979 13.7015 28.5355 14.1777 28.6548C15.7321 29.161 16.8358 29.8122 17.489 30.6082C18.1421 31.4043 18.4686 32.4961 18.4686 33.8837L18.4686 34.3423C18.4686 36.385 18.0944 37.8392 17.346 38.7047C16.5976 39.5702 15.3291 40.002 13.5405 40Z" fill="#262626"/>
<path d="M30.7065 39.7588L26.7759 39.7588L24.7302 33.7021L24.7302 39.7588L20.9932 39.7588L20.9932 21.538L24.7302 21.538L24.7302 31.7785L26.6538 25.9749L30.5725 25.9749L28.0832 32.6926L30.7065 39.7588Z" fill="#262626"/>
<path d="M32.3654 24.7748L32.3654 21.538L36.4032 21.538L36.4032 24.7748L32.3654 24.7748ZM32.4934 39.7588L32.4934 25.9749L36.2484 25.9749L36.2484 39.7588L32.4934 39.7588Z" fill="#262626"/>
<path d="M39.074 39.7588L39.074 21.538L42.811 21.538L42.811 39.7588L39.074 39.7588Z" fill="#262626"/>
<path d="M45.6373 39.7588L45.6373 21.538L49.3744 21.538L49.3744 39.7588L45.6373 39.7588Z" fill="#262626"/>
<path d="M56.1457 40C54.5735 40 53.4389 39.6854 52.7421 39.0561C52.0454 38.4268 51.7009 37.3915 51.7089 35.9503L51.7089 35.1314L55.2077 35.1314L55.2077 36.4059C55.1835 36.6743 55.2484 36.9433 55.3923 37.1712C55.4746 37.2507 55.573 37.3116 55.6809 37.3496C55.7888 37.3877 55.9037 37.402 56.0177 37.3915C56.1295 37.4047 56.2428 37.3922 56.3491 37.3551C56.4554 37.318 56.5518 37.2571 56.6311 37.1771C56.7664 36.9439 56.8257 36.6744 56.8008 36.4059L56.8008 35.9503C56.8214 35.7686 56.8038 35.5847 56.7489 35.4103C56.694 35.2359 56.6031 35.075 56.4822 34.9379C56.2658 34.7393 55.7328 34.5071 54.8831 34.2411C53.7516 33.8718 52.9446 33.3487 52.4622 32.6718C51.9798 31.9949 51.7367 31.0519 51.7327 29.8429L51.7327 29.8191C51.7327 28.4791 52.1039 27.4637 52.8464 26.7729C53.5888 26.0821 54.6807 25.7347 56.1219 25.7307C59.0222 25.7307 60.4724 26.9446 60.4724 29.3725L60.4724 30.1735L56.911 30.1735L56.911 29.3189C56.9343 29.0536 56.8817 28.7871 56.7591 28.5506C56.6917 28.471 56.6054 28.4094 56.5082 28.3715C56.411 28.3335 56.3058 28.3204 56.2023 28.3332C56.0965 28.321 55.9894 28.3343 55.8899 28.3722C55.7904 28.41 55.7014 28.4712 55.6306 28.5506C55.5015 28.7849 55.4455 29.0525 55.4698 29.3189L55.4698 29.5362C55.4493 29.7165 55.4671 29.8991 55.522 30.072C55.5769 30.2449 55.6677 30.4043 55.7884 30.5397C55.9988 30.7263 56.5209 30.9566 57.3547 31.2306C58.5458 31.6058 59.3716 32.1199 59.8321 32.773C60.2927 33.4262 60.5299 34.3929 60.5438 35.6734L60.5438 35.8312C60.5438 38.6104 59.0778 40 56.1457 40Z" fill="#262626"/>
<path d="M4.77037 36.5697C5.10591 36.5936 5.42697 36.7158 5.69347 36.921C5.87171 37.0711 6.01166 37.2615 6.10176 37.4763C6.19185 37.6912 6.22951 37.9245 6.2116 38.1568C6.22627 38.401 6.17649 38.6449 6.06727 38.8638C5.95804 39.0828 5.7932 39.2692 5.58925 39.4045C5.07391 39.7268 4.47227 39.8837 3.86514 39.8541C3.51972 39.8541 2.62342 39.8124 2.0785 39.4045C1.88317 39.2584 1.72671 39.0666 1.62286 38.846C1.51902 38.6253 1.47097 38.3825 1.48294 38.1389C1.46616 37.8787 1.52569 37.6192 1.65422 37.3923C1.78275 37.1654 1.9747 36.9809 2.20654 36.8615C2.40605 36.7483 2.90631 36.525 4.017 36.5339L4.017 39.1067C4.4593 39.1272 4.89857 39.0241 5.28552 38.8089C5.40463 38.7419 5.50345 38.6441 5.57158 38.5256C5.63971 38.4072 5.67462 38.2726 5.67263 38.1359C5.6756 37.9979 5.6412 37.8617 5.57305 37.7416C5.5049 37.6216 5.40555 37.5222 5.28552 37.454C5.12774 37.3603 4.95042 37.3042 4.7674 37.2903L4.77037 36.5697ZM3.48697 37.2932C3.1208 37.2867 2.75711 37.3545 2.41796 37.4928C2.2887 37.5417 2.17864 37.631 2.10409 37.7473C2.02953 37.8637 1.99446 38.001 2.00405 38.1389C1.99914 38.2753 2.0301 38.4107 2.09385 38.5314C2.1576 38.6521 2.2519 38.7539 2.36734 38.8268C2.70535 39.0124 3.08659 39.1049 3.47208 39.0948L3.48697 37.2932Z" fill="#262626"/>
<path d="M2.9512 35.5185C2.65036 35.5218 2.35381 35.4469 2.09063 35.3011C1.88566 35.1657 1.72174 34.9767 1.61674 34.7546C1.51173 34.5325 1.46966 34.2859 1.49509 34.0415C1.47034 33.683 1.57611 33.3277 1.79286 33.041C1.94546 32.8893 2.12991 32.7734 2.33283 32.7019C2.53576 32.6303 2.75207 32.6047 2.96609 32.6271L5.13984 32.6271C5.24102 32.6381 5.34335 32.6238 5.43762 32.5854C5.51504 32.5348 5.52397 32.4306 5.50015 32.3085L6.0421 32.3085C6.06096 32.4288 6.07289 32.5501 6.07783 32.6718C6.08628 32.81 6.04627 32.9469 5.96468 33.0589C5.93156 33.1093 5.88767 33.1517 5.83618 33.1831C5.78469 33.2145 5.72688 33.2341 5.6669 33.2405C5.84916 33.3838 5.99376 33.5692 6.08819 33.7809C6.18262 33.9926 6.22404 34.2241 6.20885 34.4554C6.22218 34.6483 6.18264 34.8412 6.09449 35.0133C6.00634 35.1854 5.87292 35.3302 5.70859 35.4321C5.46156 35.5784 5.17622 35.6469 4.88971 35.6287C4.68715 35.6432 4.48424 35.6056 4.30027 35.5197C4.11629 35.4337 3.95736 35.3021 3.83857 35.1373C3.67752 34.8844 3.57572 34.5984 3.5408 34.3006C3.50506 34.0862 3.48124 33.8093 3.43657 33.6217C3.43272 33.5759 3.41836 33.5317 3.3946 33.4925C3.37083 33.4532 3.33833 33.42 3.2996 33.3954C3.18032 33.3533 3.05301 33.3391 2.92738 33.3537C2.66172 33.3263 2.39514 33.3961 2.17699 33.5502C2.11426 33.6147 2.06631 33.692 2.03649 33.7768C2.00666 33.8617 1.99567 33.952 2.00428 34.0415C1.99703 34.1351 2.00858 34.2291 2.03824 34.3181C2.0679 34.407 2.11508 34.4892 2.17699 34.5597C2.27947 34.6515 2.39982 34.7211 2.5305 34.7641C2.66117 34.8072 2.79934 34.8227 2.93632 34.8098L2.9512 35.5185ZM3.90706 33.3537C3.93914 33.4809 3.96203 33.6103 3.97554 33.7408C3.99231 33.9564 4.03021 34.1698 4.0887 34.378C4.14795 34.5472 4.2649 34.69 4.41901 34.7815C4.57312 34.873 4.75454 34.9073 4.9314 34.8783C5.11909 34.8932 5.30669 34.8483 5.4674 34.7502C5.53274 34.7011 5.58544 34.6371 5.62117 34.5636C5.6569 34.4901 5.67461 34.4091 5.67286 34.3274C5.67297 34.1802 5.63887 34.035 5.57324 33.9032C5.50761 33.7714 5.41225 33.6567 5.29469 33.5681C4.95115 33.3867 4.56129 33.312 4.17505 33.3537L3.90706 33.3537Z" fill="#262626"/>
<path d="M4.73778 30.8018C4.9599 30.8167 5.18152 30.766 5.37501 30.6559C5.47355 30.5861 5.55263 30.4923 5.60474 30.3834C5.65686 30.2745 5.68028 30.154 5.67279 30.0335C5.6808 29.921 5.66173 29.8082 5.61718 29.7046C5.57262 29.601 5.50388 29.5096 5.4167 29.438C5.25718 29.3356 5.0701 29.2847 4.88071 29.2921C4.69518 29.2827 4.51307 29.3445 4.37152 29.4648C4.18349 29.7052 4.06136 29.9906 4.01716 30.2926C3.9531 30.5932 3.8126 30.8721 3.60921 31.1025C3.3654 31.297 3.05642 31.3907 2.74567 31.3646C2.56137 31.3735 2.37748 31.34 2.20815 31.2667C2.03882 31.1934 1.88858 31.0822 1.76897 30.9417C1.56811 30.648 1.46876 30.2966 1.48609 29.9412C1.4627 29.5984 1.56898 29.2594 1.78386 28.9913C1.91986 28.8605 2.08109 28.7586 2.2577 28.6921C2.43432 28.6255 2.62264 28.5956 2.81118 28.6042L2.81118 29.3189C2.62376 29.3073 2.43714 29.3519 2.27519 29.4469C2.19302 29.5071 2.12712 29.5868 2.08345 29.6788C2.03979 29.7708 2.01971 29.8723 2.02505 29.974C2.01948 30.0585 2.03113 30.1432 2.05928 30.223C2.08743 30.3029 2.13151 30.3762 2.18883 30.4385C2.34305 30.5683 2.54154 30.6334 2.74269 30.6201C2.83348 30.6274 2.92477 30.6158 3.01086 30.586C3.09694 30.5563 3.17596 30.5091 3.24295 30.4474C3.39124 30.2431 3.48826 30.0062 3.52584 29.7566C3.5886 29.4338 3.72179 29.1287 3.91592 28.8633C4.02839 28.7406 4.16719 28.6449 4.32191 28.5836C4.47663 28.5222 4.64325 28.4967 4.80924 28.5089C5.01395 28.5008 5.21785 28.5391 5.40559 28.6211C5.59333 28.7031 5.76003 28.8267 5.89314 28.9824C6.11944 29.3071 6.23151 29.6978 6.21176 30.0931C6.23128 30.4295 6.1403 30.7631 5.95269 31.043C5.75616 31.302 5.40181 31.5254 4.73778 31.5343L4.73778 30.8018Z" fill="#262626"/>
<path d="M6.99799 27.3625C7.06449 27.2624 7.10257 27.1461 7.10816 27.026C7.10816 26.7074 6.77168 26.627 6.3667 26.5406L6.03915 26.4721L1.6589 27.9134L1.6589 27.0855L5.0297 26.094L1.6589 25.2751L1.6589 24.5485L6.55728 25.8706C6.80058 25.9193 7.03538 26.0036 7.25407 26.1208C7.39312 26.2147 7.50472 26.3438 7.57745 26.495C7.65017 26.6463 7.68142 26.8141 7.66798 26.9813C7.6665 27.11 7.6495 27.2379 7.61736 27.3625L6.99799 27.3625Z" fill="#262626"/>
<path d="M4.73788 20.9424C4.96012 20.9588 5.18215 20.908 5.37512 20.7965C5.47384 20.7276 5.55311 20.6344 5.60528 20.5259C5.65744 20.4174 5.68073 20.2973 5.67289 20.1772C5.6809 20.0647 5.66184 19.9519 5.61728 19.8482C5.57272 19.7446 5.50398 19.6532 5.41681 19.5816C5.25819 19.4773 5.07045 19.4261 4.88082 19.4357C4.69507 19.4248 4.5124 19.4868 4.37162 19.6084C4.18359 19.8489 4.06146 20.1342 4.01727 20.4362C3.95225 20.7347 3.8118 21.0115 3.60932 21.2402C3.36485 21.4387 3.05394 21.5367 2.73982 21.5142C2.55582 21.523 2.37222 21.4898 2.20298 21.417C2.03373 21.3443 1.8833 21.2339 1.76312 21.0943C1.56265 20.8004 1.46335 20.4492 1.48024 20.0938C1.45683 19.9142 1.47468 19.7317 1.53243 19.56C1.59017 19.3884 1.68628 19.2322 1.81346 19.1033C1.94064 18.9744 2.09555 18.8762 2.26639 18.8161C2.43723 18.7561 2.61951 18.7358 2.79937 18.7568L2.79937 19.4536C2.61166 19.4431 2.42508 19.4887 2.26338 19.5846C2.18043 19.6433 2.11389 19.7223 2.07011 19.8141C2.02633 19.9058 2.00675 20.0072 2.01325 20.1087C2.00779 20.1936 2.01947 20.2788 2.04761 20.3591C2.07575 20.4394 2.11976 20.5132 2.17703 20.5762C2.33124 20.706 2.52973 20.7711 2.73089 20.7578C2.82167 20.765 2.91297 20.7534 2.99905 20.7237C3.08514 20.694 3.16415 20.6468 3.23114 20.5851C3.37882 20.3805 3.47578 20.1437 3.51403 19.8943C3.57603 19.5712 3.70929 19.266 3.90412 19.001C4.01617 18.8777 4.15491 18.7817 4.30973 18.7203C4.46456 18.6589 4.63138 18.6337 4.79744 18.6466C5.002 18.6331 5.20696 18.6663 5.39681 18.7437C5.58665 18.8211 5.75641 18.9406 5.89325 19.0933C6.12018 19.4188 6.23229 19.8106 6.21187 20.2069C6.23094 20.5433 6.14 20.8767 5.9528 21.1568C5.75627 21.4159 5.40192 21.6392 4.73788 21.6482L4.73788 20.9424Z" fill="#262626"/>
<path d="M1.65862 16.9046L2.12017 16.9046L2.12017 16.8689C1.9834 16.821 1.85993 16.7414 1.75986 16.6366C1.57943 16.4421 1.48311 16.1842 1.49187 15.919C1.48694 15.7828 1.51093 15.6471 1.56226 15.5208C1.61358 15.3946 1.69108 15.2806 1.78964 15.1865C1.93894 15.0632 2.1173 14.9802 2.30776 14.9453C2.10126 14.8972 1.91492 14.7858 1.77475 14.6267C1.58347 14.4013 1.48453 14.112 1.49782 13.8167C1.49347 13.6635 1.52297 13.5112 1.58422 13.3707C1.64547 13.2302 1.73696 13.1049 1.85217 13.0038C2.21248 12.706 2.74549 12.6762 3.22193 12.6762L6.05078 12.6762L6.05078 13.4028L3.27553 13.4028C3.02933 13.3971 2.78312 13.414 2.54003 13.4534C2.3167 13.4981 2.03083 13.6083 2.03083 13.9716C2.03736 14.1209 2.08852 14.2648 2.1777 14.3848C2.26687 14.5048 2.38998 14.5952 2.5311 14.6445C2.81799 14.7437 3.1212 14.7872 3.42442 14.7726L6.03589 14.7726L6.03589 15.4962L3.2666 15.4962C3.02123 15.4889 2.77577 15.5069 2.53407 15.5498C2.31074 15.5915 2.01594 15.7046 2.01594 16.0679C2.02126 16.2085 2.06748 16.3446 2.14893 16.4593C2.23038 16.5741 2.34352 16.6626 2.47452 16.7141C2.77595 16.8348 3.10026 16.8876 3.42442 16.8689L6.03589 16.8689L6.03589 17.5925L1.65564 17.5925L1.65862 16.9046Z" fill="#262626"/>
<path d="M1.95926 11.0236C1.65614 10.7185 1.48601 10.3058 1.48601 9.8757C1.48601 9.44558 1.65614 9.03293 1.95926 8.72778C2.45059 8.29005 3.332 8.16797 3.84119 8.16797C4.35039 8.16797 5.22882 8.29006 5.72908 8.72778C5.88169 8.87748 6.00292 9.0561 6.08568 9.2532C6.16843 9.4503 6.21106 9.66193 6.21106 9.8757C6.21106 10.0895 6.16843 10.3011 6.08568 10.4982C6.00292 10.6953 5.88169 10.8739 5.72908 11.0236C5.22882 11.4643 4.37421 11.5834 3.84119 11.5834C3.30818 11.5834 2.45059 11.4643 1.95926 11.0236ZM5.13353 10.6008C5.28983 10.5544 5.42695 10.4587 5.52447 10.3281C5.62198 10.1974 5.67466 10.0387 5.67466 9.8757C5.67466 9.71266 5.62198 9.55399 5.52447 9.42333C5.42695 9.29267 5.28983 9.19701 5.13353 9.15062C4.72369 8.98459 4.28299 8.90843 3.84119 8.92729C3.40129 8.90779 2.9624 8.98399 2.55481 9.15062C2.40012 9.19872 2.26486 9.29504 2.16881 9.42549C2.07276 9.55594 2.02095 9.7137 2.02095 9.8757C2.02095 10.0377 2.07276 10.1955 2.16881 10.3259C2.26486 10.4564 2.40012 10.5527 2.55481 10.6008C2.9624 10.7674 3.40129 10.8436 3.84119 10.8241C4.28299 10.843 4.72369 10.7668 5.13353 10.6008Z" fill="#262626"/>
<path d="M1.65886 4.89243L1.65886 4.09142L3.34723 5.39269L6.0272 3.95146L6.0272 4.75545L3.90705 5.87508L4.51749 6.35152L6.03613 6.35152L6.03613 7.07511L0.000256538 7.07511L0.00025657 6.35152L3.57355 6.35152L1.65886 4.89243Z" fill="#262626"/>
<path d="M4.77048 0.157833C5.10598 0.184141 5.42665 0.307236 5.69358 0.512185C5.87158 0.661806 6.01141 0.851647 6.1015 1.06601C6.1916 1.28038 6.22937 1.51311 6.21171 1.74497C6.22821 1.99115 6.17933 2.23731 6.07004 2.45851C5.96074 2.67971 5.79491 2.86809 5.58936 3.00455C5.07301 3.32376 4.47144 3.47753 3.86525 3.44526C3.51983 3.44526 2.62353 3.40059 2.0786 2.99562C1.88285 2.8493 1.72612 2.65704 1.62226 2.43581C1.5184 2.21458 1.47058 1.97118 1.48305 1.7271C1.46686 1.46735 1.52668 1.2085 1.65517 0.982177C1.78367 0.755852 1.97529 0.571845 2.20664 0.45263C2.40615 0.339476 2.90641 0.116144 4.01711 0.125077L4.01711 2.68594C4.45941 2.70649 4.89868 2.60338 5.28563 2.38816C5.40357 2.31873 5.50133 2.2197 5.56926 2.10089C5.63719 1.98207 5.67291 1.84758 5.67291 1.71072C5.67291 1.57386 5.63719 1.43938 5.56926 1.32056C5.50133 1.20175 5.40357 1.10272 5.28563 1.03329C5.12785 0.939504 4.95052 0.883453 4.7675 0.869512L4.77048 0.157833ZM3.48707 0.884402C3.12623 0.880379 2.7681 0.94715 2.43295 1.08093C2.30424 1.13067 2.19473 1.22012 2.1203 1.33631C2.04587 1.4525 2.01041 1.58939 2.01905 1.7271C2.01421 1.86392 2.04518 1.99962 2.1089 2.12079C2.17261 2.24196 2.26687 2.34439 2.38233 2.41794C2.72034 2.60355 3.10159 2.69603 3.48707 2.68594L3.48707 0.884402Z" fill="#262626"/>
</svg>
